<svg width="29" height="30" viewBox="0 0 29 30" fill="none" xmlns="http://www.w3.org/2000/svg">
<g filter="url(#filter0_d_7_185)">
<path d="M20.2677 9.0611L16.0023 12.4954C15.1951 13.1282 14.0635 13.1282 13.2563 12.4954L8.95422 9.0611" stroke="#4E4B66" stroke-width="1.5" stroke-linecap="round" stroke-linejoin="round"/>
<path fill-rule="evenodd" clip-rule="evenodd" d="M9.88787 3.5H19.3158C20.6752 3.51525 21.969 4.08993 22.896 5.0902C23.823 6.09048 24.3022 7.42903 24.222 8.79412V15.322C24.3022 16.6871 23.823 18.0256 22.896 19.0259C21.969 20.0262 20.6752 20.6009 19.3158 20.6161H9.88787C6.96796 20.6161 5 18.2407 5 15.322V8.79412C5 5.87545 6.96796 3.5 9.88787 3.5Z" stroke="#4E4B66" stroke-width="1.5" stroke-linecap="round" stroke-linejoin="round"/>
</g>
<defs>
<filter id="filter0_d_7_185" x="-1" y="0" width="32" height="32" filterUnits="userSpaceOnUse" color-interpolation-filters="sRGB">
<feFlood flood-opacity="0" result="BackgroundImageFix"/>
<feColorMatrix in="SourceAlpha" type="matrix" values="0 0 0 0 0 0 0 0 0 0 0 0 0 0 0 0 0 0 127 0" result="hardAlpha"/>
<feOffset dy="4"/>
<feGaussianBlur stdDeviation="2"/>
<feComposite in2="hardAlpha" operator="out"/>
<feColorMatrix type="matrix" values="0 0 0 0 0 0 0 0 0 0 0 0 0 0 0 0 0 0 0.25 0"/>
<feBlend mode="normal" in2="BackgroundImageFix" result="effect1_dropShadow_7_185"/>
<feBlend mode="normal" in="SourceGraphic" in2="effect1_dropShadow_7_185" result="shape"/>
</filter>
</defs>
</svg>
