<svg width="24" height="24" viewBox="0 0 24 24" fill="none" xmlns="http://www.w3.org/2000/svg">
<g clip-path="url(#clip0_9_71)">
<path d="M11.9997 0C6.73278 0 2.44785 4.28489 2.44785 9.55181C2.44785 11.5997 3.08656 13.5522 4.295 15.1983C5.42558 16.7383 6.95835 17.8868 8.74053 18.5325L11.9891 24L15.3816 18.4868C19.0825 17.0863 21.5514 13.5278 21.5514 9.55181C21.5515 4.28489 17.2665 0 11.9997 0ZM11.9997 16.1988C8.33446 16.1988 5.3526 13.217 5.3526 9.55177C5.3526 5.88661 8.33446 2.90475 11.9997 2.90475C15.6649 2.90475 18.6467 5.88661 18.6467 9.55177C18.6467 13.217 15.6649 16.1988 11.9997 16.1988Z" fill="white"/>
<path d="M11.9995 4.31372C9.11117 4.31372 6.76132 6.66352 6.76132 9.55181C6.76132 12.4402 9.11117 14.79 11.9995 14.79C14.8878 14.79 17.2376 12.4402 17.2376 9.55181C17.2376 6.66352 14.8878 4.31372 11.9995 4.31372ZM13.1626 11.7485C12.8665 11.4152 12.4425 11.224 11.9995 11.224C11.5564 11.224 11.1325 11.4152 10.8363 11.7485L9.78312 10.8127C10.3464 10.1787 11.1543 9.81506 11.9995 9.81506C12.8447 9.81506 13.6525 10.1787 14.2158 10.8127L13.1626 11.7485ZM16.2248 9.02025L15.1716 9.95616C14.3648 9.04824 13.2086 8.52755 11.9995 8.52755C10.7903 8.52755 9.6341 9.04824 8.82729 9.95616L7.77415 9.02025C8.8481 7.81177 10.3881 7.11863 11.9995 7.11863C13.6108 7.11863 15.1509 7.81177 16.2248 9.02025Z" fill="white"/>
</g>
<defs>
<clipPath id="clip0_9_71">
<rect width="24" height="24" fill="white"/>
</clipPath>
</defs>
</svg>
